<?xml version="1.0" encoding="UTF-8" standalone="no"?><!DOCTYPE svg PUBLIC "-//W3C//DTD SVG 1.1//EN" "http://www.w3.org/Graphics/SVG/1.1/DTD/svg11.dtd"><svg width="100%" height="100%" viewBox="0 0 688 555" version="1.1" xmlns="http://www.w3.org/2000/svg" xmlns:xlink="http://www.w3.org/1999/xlink" xml:space="preserve" xmlns:serif="http://www.serif.com/" style="fill-rule:evenodd;clip-rule:evenodd;stroke-linejoin:round;stroke-miterlimit:2;"><rect id="Visual2_TwoEyes" x="0" y="0.017" width="685.107" height="553.804" style="fill:none;"/><path d="M423.665,408.446c-2.965,5.23 -5.964,10.101 -8.923,14.636c11.906,11.327 21.708,22.213 28.911,32.298l12.095,16.932c8.025,11.235 5.423,26.849 -5.812,34.874l-33.864,24.19c-11.235,8.025 -26.849,5.423 -34.875,-5.812l-12.094,-16.932c-44.793,-62.707 -217.25,-158.243 -306.733,-188.537l-25.823,-8.262c-10.355,-3.312 -17.382,-12.938 -17.382,-23.811l-0,-27.076c-0,-10.874 7.029,-20.5 17.386,-23.812c0,0 25.843,-8.263 25.887,-8.278c54.29,-18.303 138.293,-59.681 207.22,-104.353c43.737,-28.347 81.704,-57.165 98.407,-82.65l11.406,-17.404c7.569,-11.547 23.066,-14.773 34.614,-7.205l34.806,22.812c11.548,7.569 14.774,23.066 7.206,34.614l-11.407,17.403c-7.077,10.799 -16.76,22.296 -28.594,34.124c2.928,4.593 5.881,9.561 8.79,14.91c9.027,-5.456 17.906,-11.003 26.547,-16.604c43.737,-28.347 81.704,-57.165 98.407,-82.65l11.406,-17.404c7.569,-11.547 23.066,-14.773 34.614,-7.205l34.806,22.812c11.548,7.569 14.774,23.066 7.206,34.614l-11.406,17.403c-7.077,10.798 -16.758,22.292 -28.589,34.118c20.057,31.419 41.354,80.518 41.354,148.293c0,70.424 -22.287,117.437 -42.698,148.614c11.899,11.321 21.695,22.202 28.895,32.282l12.095,16.932c8.025,11.235 5.423,26.849 -5.812,34.874l-33.864,24.19c-11.235,8.025 -26.849,5.423 -34.874,-5.812l-12.095,-16.932c-21.127,-29.577 -71.287,-66.246 -127.213,-100.186Z" style="fill:#fff;"/><path d="M413.271,373.23c68.385,39.579 132.631,85.423 157.951,120.87l12.095,16.932l33.864,-24.189l-12.095,-16.932c-9.432,-13.204 -23.881,-27.818 -41.786,-43.065c20.456,-27.245 50.932,-73.801 50.932,-152.362c0,-75.515 -28.892,-125.556 -49.303,-151.634c17.497,-15.507 31.518,-30.581 40.628,-44.481l11.406,-17.404l-34.806,-22.812l-11.406,17.403c-18.04,27.525 -58.484,59.311 -105.72,89.926c-16.365,10.606 -33.56,21.026 -51.015,31.012c-9.525,-23.412 -21.153,-41.239 -30.862,-53.644c17.497,-15.507 31.518,-30.581 40.628,-44.481l11.406,-17.404l-34.806,-22.812l-11.407,17.403c-18.039,27.525 -58.483,59.311 -105.719,89.926c-70.873,45.934 -157.316,88.383 -213.058,107.141l-26.032,8.323l-0,27.076l26.025,8.326c93.23,31.509 272.528,132.336 319.256,197.752l12.094,16.932l33.864,-24.189l-12.094,-16.932c-9.432,-13.204 -23.881,-27.818 -41.786,-43.065c9.767,-13.009 21.819,-30.42 31.746,-53.616Zm13.255,-156.017c18.404,-10.334 36.616,-21.168 54.03,-32.244c-8.018,24.233 -13.624,53.928 -13.624,89.515c-0,38.094 6.255,68.597 15.018,93.05c-18.005,-11.636 -36.833,-23.079 -55.84,-34.007c3.93,-17.331 6.347,-36.918 6.347,-59.043c0,-21.061 -2.247,-40.141 -5.931,-57.271Zm133.75,130.427c-6.233,17.007 -14.03,30.755 -21.445,41.857c-14.962,-23.935 -30.283,-60.119 -30.283,-115.013c-0,-55.127 15.595,-93.34 30.371,-116.643c7.428,10.998 15.381,25.464 21.694,43.465c-9.674,14.693 -20.031,38.832 -20.031,73.822c-0,34.772 10.034,57.539 19.694,72.512Zm12.172,-133.487c6.226,-1.333 13.556,8.217 16.358,21.313c2.803,13.095 0.024,24.808 -6.201,26.141c-6.226,1.332 -13.555,-8.218 -16.358,-21.313c-2.803,-13.096 -0.024,-24.809 6.201,-26.141Zm-181.775,-0c6.226,-1.333 13.555,8.217 16.358,21.313c2.803,13.095 0.024,24.808 -6.201,26.141c-6.226,1.332 -13.555,-8.218 -16.358,-21.313c-2.803,-13.096 -0.024,-24.809 6.201,-26.141Zm-90.498,153.381c-55.661,-35.973 -119.199,-70.098 -171.509,-92.874c51.89,-22.001 114.998,-54.635 170.114,-89.691c-8.017,24.233 -13.624,53.928 -13.624,89.515c0,38.094 6.256,68.597 15.019,93.05Zm78.326,-19.894c-6.233,17.007 -14.03,30.755 -21.445,41.857c-14.963,-23.935 -30.283,-60.119 -30.283,-115.013c-0,-55.127 15.595,-93.34 30.371,-116.643c7.428,10.998 15.381,25.464 21.694,43.465c-9.674,14.693 -20.031,38.832 -20.031,73.822c-0,34.772 10.034,57.539 19.694,72.512Z"/></svg>