<?xml version="1.0" encoding="UTF-8" standalone="no"?><!DOCTYPE svg PUBLIC "-//W3C//DTD SVG 1.1//EN" "http://www.w3.org/Graphics/SVG/1.1/DTD/svg11.dtd"><svg width="100%" height="100%" viewBox="0 0 1509 396" version="1.1" xmlns="http://www.w3.org/2000/svg" xmlns:xlink="http://www.w3.org/1999/xlink" xml:space="preserve" xmlns:serif="http://www.serif.com/" style="fill-rule:evenodd;clip-rule:evenodd;stroke-linejoin:round;stroke-miterlimit:2;"><rect id="Visual2_Typo" x="0" y="0" width="1507.43" height="393.284" style="fill:none;"/><path d="M324.717,90.847c-14.944,15.708 -30.703,37.152 -46.071,60.863c-34.666,53.488 -65.912,114.56 -80.068,156.629l-6.282,19.646l-20.434,0l-6.284,-19.641c-23.78,-70.361 -100.665,-201.511 -150.035,-236.777l-12.779,-9.128l18.256,-25.557l12.779,9.128c9.965,7.118 20.994,18.023 32.501,31.536c20.562,-15.438 55.698,-38.439 114.988,-38.439c56.991,0 94.758,21.806 114.439,37.21c11.703,-13.205 23.079,-23.787 33.57,-30.663c8.687,-5.585 18.729,-9.477 29.614,-12.316l-0.043,29.815l-0.031,8.48l-0.021,0l-0,256.967l-34.099,0l-0,-237.753Zm-97.897,-20.205c1.006,-4.699 -6.202,-10.23 -16.085,-12.346c-9.883,-2.115 -18.723,-0.018 -19.729,4.681c-1.005,4.698 6.202,10.23 16.085,12.345c9.884,2.115 18.724,0.018 19.729,-4.68Zm-115.757,68.299c27.149,42.008 52.903,89.96 70.092,129.439c16.604,-39.162 41.233,-86.79 67.69,-128.386c-18.289,6.051 -40.699,10.282 -67.557,10.282c-28.75,-0 -51.771,-4.721 -70.225,-11.335Zm15.014,-59.113c-12.835,4.704 -23.211,10.588 -31.59,16.185c18.064,11.292 45.372,22.855 86.801,22.855c41.604,-0 70.444,-11.77 88.031,-22.922c-8.3,-5.606 -19.218,-11.607 -32.803,-16.372c-11.089,7.301 -29.307,15.117 -55.714,15.117c-26.242,0 -43.425,-7.572 -54.725,-14.863Zm350.433,133.51c-29.244,-8.407 -50.556,-18.708 -63.936,-30.903c-13.26,-12.313 -19.891,-27.469 -19.891,-45.465c0,-20.365 8.111,-37.178 24.331,-50.439c16.34,-13.379 37.533,-20.069 63.581,-20.069c17.76,0 33.567,3.434 47.42,10.301c13.971,6.867 24.745,16.339 32.323,28.416c7.696,12.077 11.544,25.279 11.544,39.605l-34.277,-0c-0,-15.629 -4.973,-27.883 -14.918,-36.763c-9.946,-8.999 -23.976,-13.498 -42.092,-13.498c-16.813,0 -29.955,3.73 -39.427,11.189c-9.354,7.341 -14.03,17.582 -14.03,30.725c-0,10.537 4.44,19.477 13.32,26.817c8.998,7.223 24.212,13.853 45.643,19.892c21.549,6.038 38.362,12.728 50.438,20.068c12.196,7.223 21.194,15.688 26.996,25.397c5.92,9.709 8.88,21.135 8.88,34.277c-0,20.957 -8.17,37.77 -24.509,50.438c-16.339,12.551 -38.184,18.826 -65.535,18.826c-17.76,0 -34.336,-3.374 -49.728,-10.123c-15.392,-6.867 -27.291,-16.221 -35.697,-28.061c-8.288,-11.84 -12.432,-25.278 -12.432,-40.315l34.276,-0c0,15.629 5.743,28.001 17.228,37.118c11.603,8.999 27.054,13.498 46.353,13.498c17.997,-0 31.791,-3.671 41.381,-11.011c9.591,-7.341 14.386,-17.346 14.386,-30.015c-0,-12.669 -4.44,-22.437 -13.32,-29.304c-8.88,-6.985 -24.983,-13.853 -48.308,-20.601Zm313.301,-143.324l-0,175.824c-0.118,24.391 -7.814,44.341 -23.088,59.852c-15.155,15.51 -35.757,24.212 -61.805,26.107l-9.057,0.355c-28.298,0 -50.853,-7.637 -67.666,-22.91c-16.813,-15.274 -25.338,-36.29 -25.575,-63.048l0,-176.18l33.744,0l0,175.114c0,18.707 5.151,33.27 15.452,43.69c10.3,10.3 24.982,15.451 44.045,15.451c19.299,-0 34.04,-5.151 44.222,-15.451c10.301,-10.301 15.451,-24.805 15.451,-43.512l0,-175.292l34.277,0Zm349.957,234.255l122.544,-0l-0,27.883l-156.821,0l-0,-258.586l34.277,0l-0,230.703Zm238.067,27.883l-34.099,0l-0,-258.586l34.099,0l-0,258.586Zm98.923,0l-34.099,0l0,-258.586l34.099,0l0,258.586Zm-558.257,-238.944c-23.781,70.361 -99.875,205.677 -149.245,240.943l-12.778,9.128l18.256,25.557l12.778,-9.128c9.965,-7.118 20.994,-18.023 32.501,-31.536c20.562,15.438 55.698,38.439 114.988,38.439c56.992,0 94.758,-21.805 114.439,-37.209c11.703,13.204 23.079,23.786 33.57,30.662l13.135,8.608l17.216,-26.269l-13.134,-8.608c-20.773,-13.614 -44.762,-44.137 -67.867,-79.787c-34.667,-53.488 -66.704,-118.726 -80.86,-160.795l-6.282,-19.647l-20.434,0l-6.283,19.642Zm62.033,241.869c1.005,4.698 -6.202,10.23 -16.085,12.345c-9.884,2.115 -18.724,0.018 -19.729,-4.68c-1.006,-4.699 6.202,-10.23 16.085,-12.346c9.883,-2.115 18.723,-0.018 19.729,4.681Zm-115.758,-68.3c27.149,-42.007 52.903,-89.96 70.092,-129.438c16.604,39.161 41.234,86.789 67.691,128.386c-18.289,-6.051 -40.7,-10.282 -67.558,-10.282c-28.749,-0 -51.77,4.72 -70.225,11.334Zm15.014,59.113c-12.835,-4.704 -23.211,-10.588 -31.589,-16.185c18.063,-11.292 45.372,-22.854 86.8,-22.854c41.605,-0 70.444,11.769 88.031,22.921c-8.3,5.606 -19.217,11.608 -32.803,16.372c-11.089,-7.301 -29.307,-15.117 -55.713,-15.117c-26.243,-0 -43.426,7.573 -54.726,14.863Z"/></svg>