<?xml version="1.0" encoding="UTF-8" standalone="no"?><!DOCTYPE svg PUBLIC "-//W3C//DTD SVG 1.1//EN" "http://www.w3.org/Graphics/SVG/1.1/DTD/svg11.dtd"><svg width="100%" height="100%" viewBox="0 0 646 559" version="1.1" xmlns="http://www.w3.org/2000/svg" xmlns:xlink="http://www.w3.org/1999/xlink" xml:space="preserve" xmlns:serif="http://www.serif.com/" style="fill-rule:evenodd;clip-rule:evenodd;stroke-linejoin:round;stroke-miterlimit:2;"><rect id="Visual2_Icon" x="0.404" y="1.157" width="642.543" height="553.804" style="fill:none;"/><path d="M453.894,36.553c15.397,10.091 23.345,27.626 28.716,31.401c15.409,10.83 32.434,-12.867 41.83,-27.203l11.406,-17.403c10.091,-15.398 30.754,-19.699 46.151,-9.607l34.807,22.812c15.397,10.091 19.698,30.754 9.607,46.151l-11.406,17.403c-6.397,9.761 -14.84,20.086 -25.031,30.707c19.587,32.498 39.16,81.249 39.16,147.137c0,68.374 -20.398,115.321 -40.346,147.376c10.119,10.02 18.554,19.665 24.99,28.675l12.095,16.932c10.701,14.98 7.231,35.799 -7.749,46.499l-33.864,24.19c-11.022,7.873 -25.204,8.075 -36.192,1.665c-3.946,-2.301 -7.48,-5.456 -10.307,-9.414l-12.095,-16.932c-9.321,-13.049 -23.019,-34.121 -45.405,-24.264c-11.722,5.161 -10.066,14.055 -25.046,24.755l-33.864,24.19c-14.981,10.7 -35.799,7.231 -46.499,-7.749l-12.095,-16.932c-44.148,-61.804 -214.323,-155.577 -302.558,-185.466l-25.756,-8.239c-13.807,-4.417 -23.176,-17.252 -23.176,-31.749l-0,-27.075c-0,-14.499 9.372,-27.335 23.181,-31.75c0,-0 25.78,-8.243 25.905,-8.285c53.807,-18.163 136.958,-59.168 205.207,-103.402c42.572,-27.591 79.712,-55.419 95.97,-80.225l11.407,-17.403c10.091,-15.398 30.753,-19.699 46.151,-9.607l34.806,22.812Z" style="fill:#fff;"/><path d="M70.625,299.814l-26.025,-8.326l-0,-27.075l26.033,-8.324c55.741,-18.757 142.184,-61.207 213.057,-107.141c47.236,-30.615 87.68,-62.4 105.72,-89.925l11.406,-17.403l34.806,22.812l-11.406,17.403c-9.11,13.901 -23.131,28.974 -40.628,44.481c20.411,26.078 49.303,76.12 49.303,151.635c0,78.561 -30.476,125.117 -50.932,152.361c17.905,15.248 32.354,29.861 41.786,43.065l12.095,16.932l-33.864,24.19l-12.095,-16.932c-46.728,-65.416 -226.026,-166.243 -319.256,-197.753Zm308.31,51.293c-9.66,-14.973 -19.694,-37.741 -19.694,-72.513c-0,-34.989 10.357,-59.129 20.031,-73.822c-6.313,-18.001 -14.266,-32.466 -21.694,-43.464c-14.776,23.302 -30.371,61.516 -30.371,116.643c-0,54.894 15.321,91.078 30.283,115.012c7.415,-11.101 15.212,-24.849 21.445,-41.856Zm12.172,-133.488c-6.225,1.333 -9.004,13.046 -6.201,26.141c2.803,13.096 10.132,22.646 16.358,21.313c6.225,-1.332 9.004,-13.045 6.201,-26.141c-2.803,-13.095 -10.132,-22.645 -16.358,-21.313Zm-90.498,153.382c-8.763,-24.453 -15.018,-54.956 -15.018,-93.05c-0,-35.588 5.606,-65.282 13.624,-89.516c-55.117,35.056 -118.225,67.691 -170.115,89.692c52.31,22.776 115.848,56.901 171.509,92.874Zm201.639,77.145c-0.371,-0.538 -0.709,-1.01 -1.011,-1.406c-12.417,-16.289 -40.802,-77.732 -37.719,-75.739c-8.763,-24.453 -15.018,-54.956 -15.018,-93.05c0,-35.588 5.606,-65.282 13.624,-89.516c-3.027,1.925 22.844,-60.577 35.955,-75.704c24.023,-18.664 43.272,-36.973 54.24,-53.708l11.406,-17.403l34.807,22.812l-11.406,17.403c-9.111,13.901 -23.132,28.974 -40.628,44.481c20.41,26.078 49.303,76.12 49.303,151.635c-0,78.561 -30.477,125.117 -50.932,152.361c17.905,15.248 32.354,29.861 41.785,43.065l12.095,16.932l-33.864,24.19l-12.095,-16.932c-10.734,-15.028 -28.465,-31.925 -50.542,-49.421Zm39.597,-97.039c-9.66,-14.973 -19.695,-37.741 -19.695,-72.513c0,-34.989 10.357,-59.129 20.031,-73.822c-6.313,-18.001 -14.265,-32.466 -21.693,-43.464c-14.777,23.302 -30.372,61.516 -30.372,116.643c0,54.894 15.321,91.078 30.284,115.012c7.415,-11.101 15.212,-24.849 21.445,-41.856Zm12.172,-133.488c-6.226,1.333 -9.004,13.046 -6.202,26.141c2.803,13.096 10.133,22.646 16.358,21.313c6.226,-1.332 9.004,-13.045 6.202,-26.141c-2.803,-13.095 -10.133,-22.645 -16.358,-21.313Z"/></svg>